<svg width="407" height="73" viewBox="0 0 407 73" fill="none" xmlns="http://www.w3.org/2000/svg">
<path d="M1.204 15.7053V6.10126H8.596V7.24926H2.534V10.2173H7.98V11.3653H2.534V14.5573H8.68V15.7053H1.204ZM10.7206 15.7053V8.34126H11.7146L11.8266 9.44726H11.9246C12.1113 9.14859 12.3213 8.90593 12.5546 8.71926C12.7879 8.53259 13.0446 8.39726 13.3246 8.31326C13.6046 8.21993 13.9079 8.17326 14.2346 8.17326C14.7106 8.17326 15.1213 8.27126 15.4666 8.46726C15.8119 8.65393 16.0686 8.98059 16.2366 9.44726H16.3206C16.4979 9.14859 16.7033 8.91059 16.9366 8.73326C17.1699 8.54659 17.4313 8.40659 17.7206 8.31326C18.0099 8.21993 18.3179 8.17326 18.6446 8.17326C19.0926 8.17326 19.4846 8.25259 19.8206 8.41126C20.1566 8.56059 20.4179 8.81259 20.6046 9.16726C20.8006 9.51259 20.8986 9.97926 20.8986 10.5673V15.7053H19.6666V10.7633C19.6666 10.4646 19.6293 10.2173 19.5546 10.0213C19.4893 9.82526 19.3913 9.67593 19.2606 9.57326C19.1299 9.46126 18.9759 9.38193 18.7986 9.33526C18.6306 9.28859 18.4486 9.26526 18.2526 9.26526C17.9259 9.26526 17.6226 9.34926 17.3426 9.51726C17.0719 9.68526 16.8526 9.92793 16.6846 10.2453C16.5166 10.5626 16.4326 10.9406 16.4326 11.3793V15.7053H15.2006V10.7633C15.2006 10.4646 15.1633 10.2173 15.0886 10.0213C15.0139 9.82526 14.9159 9.67593 14.7946 9.57326C14.6733 9.46126 14.5239 9.38193 14.3466 9.33526C14.1786 9.28859 14.0013 9.26526 13.8146 9.26526C13.4786 9.26526 13.1659 9.34926 12.8766 9.51726C12.5966 9.68526 12.3726 9.92793 12.2046 10.2453C12.0366 10.5626 11.9526 10.9406 11.9526 11.3793V15.7053H10.7206ZM24.8935 15.8733C24.6229 15.8733 24.3522 15.8406 24.0815 15.7753C23.8109 15.7099 23.5589 15.6026 23.3255 15.4533C23.0922 15.3039 22.9055 15.0986 22.7655 14.8373C22.6255 14.5666 22.5555 14.2306 22.5555 13.8293C22.5555 13.3253 22.6769 12.9099 22.9195 12.5833C23.1622 12.2566 23.4982 12.0046 23.9275 11.8273C24.3662 11.6406 24.8842 11.5146 25.4815 11.4493C26.0789 11.3746 26.7275 11.3373 27.4275 11.3373V10.4973C27.4275 10.2266 27.3809 9.99326 27.2875 9.79726C27.1942 9.60126 27.0262 9.45193 26.7835 9.34926C26.5502 9.23726 26.2142 9.18126 25.7755 9.18126C25.3555 9.18126 25.0195 9.23726 24.7675 9.34926C24.5249 9.45193 24.3522 9.58726 24.2495 9.75526C24.1562 9.92326 24.1095 10.1099 24.1095 10.3153V10.5253H22.9195C22.9102 10.4786 22.9055 10.4319 22.9055 10.3853C22.9055 10.3386 22.9055 10.2826 22.9055 10.2173C22.9055 9.76926 23.0269 9.39593 23.2695 9.09726C23.5215 8.78926 23.8715 8.56059 24.3195 8.41126C24.7675 8.25259 25.2809 8.17326 25.8595 8.17326C26.4755 8.17326 26.9889 8.26193 27.3995 8.43926C27.8195 8.61659 28.1322 8.86859 28.3375 9.19526C28.5522 9.52193 28.6595 9.91393 28.6595 10.3713V14.3613C28.6595 14.5386 28.7015 14.6646 28.7855 14.7393C28.8695 14.8046 28.9722 14.8373 29.0935 14.8373H29.6395V15.6493C29.5089 15.7053 29.3642 15.7519 29.2055 15.7893C29.0469 15.8359 28.8649 15.8593 28.6595 15.8593C28.4169 15.8593 28.2162 15.8079 28.0575 15.7053C27.8989 15.6119 27.7775 15.4813 27.6935 15.3133C27.6095 15.1359 27.5535 14.9399 27.5255 14.7253H27.4275C27.2595 14.9586 27.0449 15.1639 26.7835 15.3413C26.5315 15.5093 26.2469 15.6399 25.9295 15.7333C25.6122 15.8266 25.2669 15.8733 24.8935 15.8733ZM25.2015 14.8373C25.5002 14.8373 25.7802 14.7906 26.0415 14.6973C26.3122 14.6039 26.5502 14.4733 26.7555 14.3053C26.9609 14.1279 27.1242 13.9179 27.2455 13.6753C27.3669 13.4326 27.4275 13.1666 27.4275 12.8773V12.2613C26.6715 12.2613 26.0275 12.3033 25.4955 12.3873C24.9635 12.4713 24.5529 12.6206 24.2635 12.8353C23.9835 13.0499 23.8435 13.3533 23.8435 13.7453C23.8435 13.9973 23.8995 14.2026 24.0115 14.3613C24.1235 14.5199 24.2822 14.6413 24.4875 14.7253C24.6929 14.7999 24.9309 14.8373 25.2015 14.8373ZM30.9544 6.95526V5.58326H32.1864V6.95526H30.9544ZM30.9544 15.7053V8.34126H32.1864V15.7053H30.9544ZM34.379 15.7053V5.58326H35.611V15.7053H34.379ZM36.8375 16.3913L39.9595 5.41526H40.9535L37.8315 16.3913H36.8375ZM45.9647 15.8733C45.4421 15.8733 44.9381 15.8219 44.4527 15.7193C43.9767 15.6166 43.5521 15.4533 43.1787 15.2293C42.8054 14.9959 42.5067 14.6973 42.2827 14.3333C42.0681 13.9693 41.9607 13.5213 41.9607 12.9893C41.9607 12.9426 41.9607 12.8959 41.9607 12.8493C41.9701 12.8026 41.9747 12.7559 41.9747 12.7093H43.3187C43.3187 12.7373 43.3141 12.7839 43.3047 12.8493C43.3047 12.9053 43.3047 12.9566 43.3047 13.0033C43.3047 13.3766 43.4167 13.6939 43.6407 13.9553C43.8647 14.2166 44.1727 14.4126 44.5647 14.5433C44.9661 14.6646 45.4187 14.7253 45.9227 14.7253C46.1467 14.7253 46.3801 14.7113 46.6227 14.6833C46.8747 14.6553 47.1127 14.6086 47.3367 14.5433C47.5701 14.4686 47.7754 14.3753 47.9527 14.2633C48.1394 14.1419 48.2841 13.9973 48.3867 13.8293C48.4987 13.6519 48.5547 13.4373 48.5547 13.1853C48.5547 12.8679 48.4614 12.6066 48.2747 12.4013C48.0974 12.1866 47.8594 12.0139 47.5607 11.8833C47.2621 11.7433 46.9214 11.6219 46.5387 11.5193C46.1654 11.4073 45.7781 11.2999 45.3767 11.1973C44.9754 11.0946 44.5834 10.9779 44.2007 10.8473C43.8274 10.7073 43.4914 10.5393 43.1927 10.3433C42.8941 10.1379 42.6514 9.88593 42.4647 9.58726C42.2874 9.28859 42.1987 8.92459 42.1987 8.49526C42.1987 8.09393 42.2781 7.73459 42.4367 7.41726C42.6047 7.09993 42.8474 6.83393 43.1647 6.61926C43.4914 6.39526 43.8927 6.22726 44.3687 6.11526C44.8447 5.99393 45.3907 5.93326 46.0067 5.93326C46.5107 5.93326 46.9774 5.98926 47.4067 6.10126C47.8454 6.20393 48.2281 6.36726 48.5547 6.59126C48.8907 6.80593 49.1521 7.08126 49.3387 7.41726C49.5254 7.75326 49.6187 8.15926 49.6187 8.63526V8.80326H48.3027V8.59326C48.3027 8.27593 48.2047 8.00526 48.0087 7.78126C47.8127 7.55726 47.5421 7.38459 47.1967 7.26326C46.8607 7.14193 46.4781 7.08126 46.0487 7.08126C45.4887 7.08126 45.0221 7.13726 44.6487 7.24926C44.2754 7.35193 43.9954 7.50593 43.8087 7.71126C43.6314 7.90726 43.5427 8.13126 43.5427 8.38326C43.5427 8.67259 43.6314 8.91526 43.8087 9.11126C43.9954 9.30726 44.2381 9.47059 44.5367 9.60126C44.8354 9.72259 45.1761 9.83459 45.5587 9.93726C45.9414 10.0399 46.3287 10.1473 46.7207 10.2593C47.1221 10.3619 47.5094 10.4833 47.8827 10.6233C48.2654 10.7539 48.6061 10.9219 48.9047 11.1273C49.2127 11.3233 49.4554 11.5753 49.6327 11.8833C49.8101 12.1819 49.8987 12.5506 49.8987 12.9893C49.8987 13.6706 49.7307 14.2259 49.3947 14.6553C49.0587 15.0753 48.5967 15.3833 48.0087 15.5793C47.4207 15.7753 46.7394 15.8733 45.9647 15.8733ZM53.6207 15.8733C53.238 15.8733 52.9393 15.8033 52.7247 15.6633C52.51 15.5139 52.356 15.3226 52.2627 15.0893C52.1693 14.8466 52.1227 14.5899 52.1227 14.3193V9.37726H51.1707V8.34126H52.1507L52.3747 6.28326H53.3547V8.34126H54.7407V9.37726H53.3547V14.1373C53.3547 14.3706 53.3967 14.5479 53.4807 14.6693C53.5647 14.7813 53.7233 14.8373 53.9567 14.8373H54.7407V15.6493C54.6473 15.6959 54.5353 15.7333 54.4047 15.7613C54.274 15.7893 54.1387 15.8126 53.9987 15.8313C53.868 15.8593 53.742 15.8733 53.6207 15.8733ZM58.1829 15.8733C57.9122 15.8733 57.6416 15.8406 57.3709 15.7753C57.1002 15.7099 56.8482 15.6026 56.6149 15.4533C56.3816 15.3039 56.1949 15.0986 56.0549 14.8373C55.9149 14.5666 55.8449 14.2306 55.8449 13.8293C55.8449 13.3253 55.9662 12.9099 56.2089 12.5833C56.4516 12.2566 56.7876 12.0046 57.2169 11.8273C57.6556 11.6406 58.1736 11.5146 58.7709 11.4493C59.3682 11.3746 60.0169 11.3373 60.7169 11.3373V10.4973C60.7169 10.2266 60.6702 9.99326 60.5769 9.79726C60.4836 9.60126 60.3156 9.45193 60.0729 9.34926C59.8396 9.23726 59.5036 9.18126 59.0649 9.18126C58.6449 9.18126 58.3089 9.23726 58.0569 9.34926C57.8142 9.45193 57.6416 9.58726 57.5389 9.75526C57.4456 9.92326 57.3989 10.1099 57.3989 10.3153V10.5253H56.2089C56.1996 10.4786 56.1949 10.4319 56.1949 10.3853C56.1949 10.3386 56.1949 10.2826 56.1949 10.2173C56.1949 9.76926 56.3162 9.39593 56.5589 9.09726C56.8109 8.78926 57.1609 8.56059 57.6089 8.41126C58.0569 8.25259 58.5702 8.17326 59.1489 8.17326C59.7649 8.17326 60.2782 8.26193 60.6889 8.43926C61.1089 8.61659 61.4216 8.86859 61.6269 9.19526C61.8416 9.52193 61.9489 9.91393 61.9489 10.3713V14.3613C61.9489 14.5386 61.9909 14.6646 62.0749 14.7393C62.1589 14.8046 62.2616 14.8373 62.3829 14.8373H62.9289V15.6493C62.7982 15.7053 62.6536 15.7519 62.4949 15.7893C62.3362 15.8359 62.1542 15.8593 61.9489 15.8593C61.7062 15.8593 61.5056 15.8079 61.3469 15.7053C61.1882 15.6119 61.0669 15.4813 60.9829 15.3133C60.8989 15.1359 60.8429 14.9399 60.8149 14.7253H60.7169C60.5489 14.9586 60.3342 15.1639 60.0729 15.3413C59.8209 15.5093 59.5362 15.6399 59.2189 15.7333C58.9016 15.8266 58.5562 15.8733 58.1829 15.8733ZM58.4909 14.8373C58.7896 14.8373 59.0696 14.7906 59.3309 14.6973C59.6016 14.6039 59.8396 14.4733 60.0449 14.3053C60.2502 14.1279 60.4136 13.9179 60.5349 13.6753C60.6562 13.4326 60.7169 13.1666 60.7169 12.8773V12.2613C59.9609 12.2613 59.3169 12.3033 58.7849 12.3873C58.2529 12.4713 57.8422 12.6206 57.5529 12.8353C57.2729 13.0499 57.1329 13.3533 57.1329 13.7453C57.1329 13.9973 57.1889 14.2026 57.3009 14.3613C57.4129 14.5199 57.5716 14.6413 57.7769 14.7253C57.9822 14.7999 58.2202 14.8373 58.4909 14.8373ZM64.5378 15.7053V9.37726H63.4458V8.34126H64.5378V7.16526C64.5378 6.87593 64.5798 6.60526 64.6638 6.35326C64.7478 6.09193 64.9065 5.88193 65.1398 5.72326C65.3731 5.55526 65.6998 5.47126 66.1198 5.47126C66.2505 5.47126 66.3765 5.48059 66.4978 5.49926C66.6285 5.50859 66.7498 5.52726 66.8618 5.55526C66.9831 5.57393 67.0905 5.59726 67.1838 5.62526V6.50726H66.4418C66.2085 6.50726 66.0358 6.56793 65.9238 6.68926C65.8211 6.80126 65.7698 6.96459 65.7698 7.17926V8.34126H68.1638V7.16526C68.1638 6.87593 68.2058 6.60526 68.2898 6.35326C68.3831 6.09193 68.5465 5.88193 68.7798 5.72326C69.0131 5.55526 69.3398 5.47126 69.7598 5.47126C69.8811 5.47126 70.0071 5.48059 70.1378 5.49926C70.2685 5.50859 70.3898 5.52726 70.5018 5.55526C70.6138 5.57393 70.7165 5.59726 70.8098 5.62526V6.50726H70.0818C69.8485 6.50726 69.6758 6.56793 69.5638 6.68926C69.4518 6.80126 69.3958 6.96459 69.3958 7.17926V8.34126H70.8098V9.37726H69.3958V15.7053H68.1638V9.37726H65.7698V15.7053H64.5378ZM75.5281 15.7053V6.10126H76.8581V15.7053H75.5281ZM79.5406 15.7053V6.10126H83.1246C84.1326 6.10126 84.9912 6.26926 85.7006 6.60526C86.4099 6.94126 86.9512 7.46393 87.3246 8.17326C87.7072 8.87326 87.8986 9.78326 87.8986 10.9033C87.8986 12.0046 87.7072 12.9099 87.3246 13.6193C86.9512 14.3286 86.4099 14.8559 85.7006 15.2013C84.9912 15.5373 84.1326 15.7053 83.1246 15.7053H79.5406ZM80.8706 14.5573H83.0966C83.6286 14.5573 84.1046 14.4919 84.5246 14.3613C84.9446 14.2213 85.3039 14.0113 85.6026 13.7313C85.9012 13.4513 86.1252 13.0919 86.2746 12.6533C86.4332 12.2053 86.5126 11.6733 86.5126 11.0573V10.7773C86.5126 10.1426 86.4332 9.60593 86.2746 9.16726C86.1252 8.71926 85.9012 8.35526 85.6026 8.07526C85.3132 7.79526 84.9586 7.58993 84.5386 7.45926C84.1186 7.31926 83.6379 7.24926 83.0966 7.24926H80.8706V14.5573Z" fill="#000112"/>
<rect x="0.5" y="29.2053" width="406" height="43" rx="7.5" stroke="#A6A6AB"/>
<path d="M30.1667 58.4136H21.8333C21.4917 58.4136 21.2083 58.1303 21.2083 57.7886C21.2083 57.4469 21.4917 57.1636 21.8333 57.1636H30.1667C32.55 57.1636 33.7083 56.0053 33.7083 53.6219V47.7886C33.7083 45.4053 32.55 44.2469 30.1667 44.2469H21.8333C19.45 44.2469 18.2917 45.4053 18.2917 47.7886C18.2917 48.1303 18.0083 48.4136 17.6667 48.4136C17.325 48.4136 17.0417 48.1303 17.0417 47.7886C17.0417 44.7469 18.7917 42.9969 21.8333 42.9969H30.1667C33.2083 42.9969 34.9583 44.7469 34.9583 47.7886V53.6219C34.9583 56.6636 33.2083 58.4136 30.1667 58.4136Z" fill="#292D32"/>
<path d="M24.3658 50.3844L24.3658 50.3844L24.3619 50.3812L21.7557 48.2996C21.6936 48.2482 21.6959 48.1702 21.7295 48.1289C21.7809 48.0656 21.8596 48.0678 21.9012 48.1016L21.9012 48.1016L21.9044 48.1043L24.5118 50.1868C24.512 50.187 24.5122 50.1871 24.5124 50.1873C24.9337 50.5252 25.4772 50.6782 25.9956 50.6782C26.5141 50.6782 27.0577 50.5251 27.479 50.1872C27.4791 50.1871 27.4793 50.187 27.4795 50.1868L30.0869 48.1043L30.0869 48.1043L30.0901 48.1016C30.1443 48.0576 30.2191 48.0731 30.2513 48.1155L30.2564 48.1223L30.2617 48.1289C30.3058 48.1831 30.2903 48.2579 30.2479 48.29L30.2478 48.2899L30.2378 48.2979L27.6294 50.3812L27.6294 50.3812L27.6226 50.3868C27.193 50.7425 26.6032 50.9302 25.9998 50.9302C25.3974 50.9302 24.8055 50.7429 24.3658 50.3844Z" fill="#292D32" stroke="#292D32"/>
<path d="M22.6667 55.0803H17.6667C17.325 55.0803 17.0417 54.7969 17.0417 54.4553C17.0417 54.1136 17.325 53.8303 17.6667 53.8303H22.6667C23.0083 53.8303 23.2917 54.1136 23.2917 54.4553C23.2917 54.7969 23.0083 55.0803 22.6667 55.0803Z" fill="#292D32"/>
<path d="M20.1667 51.7469H17.6667C17.325 51.7469 17.0417 51.4636 17.0417 51.1219C17.0417 50.7803 17.325 50.4969 17.6667 50.4969H20.1667C20.5083 50.4969 20.7917 50.7803 20.7917 51.1219C20.7917 51.4636 20.5083 51.7469 20.1667 51.7469Z" fill="#292D32"/>
<path d="M48.48 55.7053V51.1453L44.16 44.7293H45.904L49.248 49.8013H49.328L52.656 44.7293H54.32L50.016 51.1453V55.7053H48.48ZM57.8488 55.8973C56.9954 55.8973 56.2754 55.7426 55.6887 55.4333C55.1127 55.1133 54.6701 54.6279 54.3607 53.9773C54.0621 53.3266 53.9127 52.4999 53.9127 51.4973C53.9127 50.4839 54.0621 49.6573 54.3607 49.0173C54.6701 48.3666 55.1127 47.8866 55.6887 47.5773C56.2754 47.2573 56.9954 47.0973 57.8488 47.0973C58.7021 47.0973 59.4167 47.2573 59.9928 47.5773C60.5794 47.8866 61.0221 48.3666 61.3208 49.0173C61.6194 49.6573 61.7688 50.4839 61.7688 51.4973C61.7688 52.4999 61.6194 53.3266 61.3208 53.9773C61.0221 54.6279 60.5794 55.1133 59.9928 55.4333C59.4167 55.7426 58.7021 55.8973 57.8488 55.8973ZM57.8488 54.7133C58.3928 54.7133 58.8461 54.6066 59.2087 54.3933C59.5714 54.1799 59.8434 53.8493 60.0248 53.4013C60.2167 52.9426 60.3127 52.3666 60.3127 51.6733V51.3213C60.3127 50.6173 60.2167 50.0413 60.0248 49.5933C59.8434 49.1453 59.5714 48.8146 59.2087 48.6013C58.8461 48.3879 58.3928 48.2813 57.8488 48.2813C57.3047 48.2813 56.8461 48.3879 56.4727 48.6013C56.1101 48.8146 55.8381 49.1453 55.6567 49.5933C55.4754 50.0413 55.3847 50.6173 55.3847 51.3213V51.6733C55.3847 52.3666 55.4754 52.9426 55.6567 53.4013C55.8381 53.8493 56.1101 54.1799 56.4727 54.3933C56.8461 54.6066 57.3047 54.7133 57.8488 54.7133ZM66.4457 55.8973C65.6351 55.8973 64.9844 55.6893 64.4937 55.2733C64.0031 54.8573 63.7577 54.1319 63.7577 53.0973V47.2893H65.1657V52.9053C65.1657 53.2573 65.2084 53.5453 65.2937 53.7693C65.3791 53.9933 65.5017 54.1693 65.6617 54.2973C65.8217 54.4253 66.0084 54.5159 66.2217 54.5693C66.4457 54.6226 66.6857 54.6493 66.9417 54.6493C67.3471 54.6493 67.7204 54.5533 68.0617 54.3613C68.4031 54.1693 68.6804 53.8919 68.8937 53.5293C69.1177 53.1559 69.2297 52.7239 69.2297 52.2333V47.2893H70.6377V55.7053H69.5017L69.3737 54.4413H69.2617C69.0377 54.7826 68.7817 55.0599 68.4937 55.2733C68.2164 55.4866 67.9017 55.6413 67.5497 55.7373C67.2084 55.8439 66.8404 55.8973 66.4457 55.8973ZM73.1421 55.7053V47.2893H74.2781L74.4061 48.6813H74.5181C74.6035 48.4146 74.7208 48.1639 74.8701 47.9293C75.0195 47.6839 75.2221 47.4866 75.4781 47.3373C75.7341 47.1773 76.0488 47.0973 76.4221 47.0973C76.5821 47.0973 76.7261 47.1133 76.8541 47.1453C76.9928 47.1666 77.0941 47.1933 77.1581 47.2253V48.5213H76.6301C76.2675 48.5213 75.9528 48.5853 75.6861 48.7133C75.4301 48.8306 75.2168 49.0013 75.0461 49.2253C74.8755 49.4493 74.7475 49.7159 74.6621 50.0253C74.5875 50.3346 74.5501 50.6653 74.5501 51.0173V55.7053H73.1421ZM85.4859 55.8973C84.6539 55.8973 83.9499 55.7426 83.3739 55.4333C82.8085 55.1133 82.3765 54.6279 82.0779 53.9773C81.7899 53.3266 81.6459 52.4999 81.6459 51.4973C81.6459 50.4839 81.7899 49.6573 82.0779 49.0173C82.3765 48.3666 82.8139 47.8866 83.3899 47.5773C83.9659 47.2573 84.6859 47.0973 85.5499 47.0973C86.3392 47.0973 87.0005 47.2519 87.5339 47.5613C88.0672 47.8599 88.4672 48.3133 88.7339 48.9213C89.0112 49.5186 89.1499 50.2706 89.1499 51.1773V51.8493H83.1019C83.1232 52.5213 83.2192 53.0759 83.3899 53.5133C83.5712 53.9399 83.8379 54.2546 84.1899 54.4573C84.5419 54.6493 84.9845 54.7453 85.5179 54.7453C85.8805 54.7453 86.1952 54.7026 86.4619 54.6173C86.7392 54.5213 86.9685 54.3879 87.1499 54.2173C87.3419 54.0466 87.4859 53.8439 87.5819 53.6093C87.6779 53.3746 87.7312 53.1186 87.7419 52.8413H89.1179C89.1072 53.2893 89.0219 53.7053 88.8619 54.0893C88.7019 54.4626 88.4672 54.7826 88.1579 55.0493C87.8485 55.3159 87.4699 55.5239 87.0219 55.6733C86.5739 55.8226 86.0619 55.8973 85.4859 55.8973ZM83.1339 50.7933H87.6939C87.6939 50.3239 87.6405 49.9293 87.5339 49.6093C87.4272 49.2893 87.2725 49.0279 87.0699 48.8253C86.8779 48.6226 86.6485 48.4786 86.3819 48.3933C86.1259 48.2973 85.8325 48.2493 85.5019 48.2493C85.0112 48.2493 84.5952 48.3399 84.2539 48.5213C83.9125 48.7026 83.6512 48.9799 83.4699 49.3533C83.2885 49.7266 83.1765 50.2066 83.1339 50.7933ZM91.2115 55.7053V47.2893H92.3475L92.4755 48.5533H92.5875C92.8008 48.2119 93.0408 47.9346 93.3075 47.7213C93.5742 47.5079 93.8675 47.3533 94.1875 47.2573C94.5075 47.1506 94.8542 47.0973 95.2275 47.0973C95.7715 47.0973 96.2408 47.2093 96.6355 47.4333C97.0302 47.6466 97.3235 48.0199 97.5155 48.5533H97.6115C97.8142 48.2119 98.0488 47.9399 98.3155 47.7373C98.5822 47.5239 98.8808 47.3639 99.2115 47.2573C99.5422 47.1506 99.8942 47.0973 100.267 47.0973C100.779 47.0973 101.227 47.1879 101.611 47.3693C101.995 47.5399 102.294 47.8279 102.507 48.2333C102.731 48.6279 102.843 49.1613 102.843 49.8333V55.7053H101.435V50.0573C101.435 49.7159 101.393 49.4333 101.307 49.2093C101.233 48.9853 101.121 48.8146 100.971 48.6973C100.822 48.5693 100.646 48.4786 100.443 48.4253C100.251 48.3719 100.043 48.3453 99.8195 48.3453C99.4462 48.3453 99.0995 48.4413 98.7795 48.6333C98.4702 48.8253 98.2195 49.1026 98.0275 49.4653C97.8355 49.8279 97.7395 50.2599 97.7395 50.7613V55.7053H96.3315V50.0573C96.3315 49.7159 96.2888 49.4333 96.2035 49.2093C96.1182 48.9853 96.0062 48.8146 95.8675 48.6973C95.7288 48.5693 95.5582 48.4786 95.3555 48.4253C95.1635 48.3719 94.9608 48.3453 94.7475 48.3453C94.3635 48.3453 94.0062 48.4413 93.6755 48.6333C93.3555 48.8253 93.0995 49.1026 92.9075 49.4653C92.7155 49.8279 92.6195 50.2599 92.6195 50.7613V55.7053H91.2115ZM107.409 55.8973C107.1 55.8973 106.79 55.8599 106.481 55.7853C106.172 55.7106 105.884 55.5879 105.617 55.4173C105.35 55.2466 105.137 55.0119 104.977 54.7133C104.817 54.4039 104.737 54.0199 104.737 53.5613C104.737 52.9853 104.876 52.5106 105.153 52.1373C105.43 51.7639 105.814 51.4759 106.305 51.2733C106.806 51.0599 107.398 50.9159 108.081 50.8413C108.764 50.7559 109.505 50.7133 110.305 50.7133V49.7533C110.305 49.4439 110.252 49.1773 110.145 48.9533C110.038 48.7293 109.846 48.5586 109.569 48.4413C109.302 48.3133 108.918 48.2493 108.417 48.2493C107.937 48.2493 107.553 48.3133 107.265 48.4413C106.988 48.5586 106.79 48.7133 106.673 48.9053C106.566 49.0973 106.513 49.3106 106.513 49.5453V49.7853H105.153C105.142 49.7319 105.137 49.6786 105.137 49.6253C105.137 49.5719 105.137 49.5079 105.137 49.4333C105.137 48.9213 105.276 48.4946 105.553 48.1533C105.841 47.8013 106.241 47.5399 106.753 47.3693C107.265 47.1879 107.852 47.0973 108.513 47.0973C109.217 47.0973 109.804 47.1986 110.273 47.4013C110.753 47.6039 111.11 47.8919 111.345 48.2653C111.59 48.6386 111.713 49.0866 111.713 49.6093V54.1693C111.713 54.3719 111.761 54.5159 111.857 54.6013C111.953 54.6759 112.07 54.7133 112.209 54.7133H112.833V55.6413C112.684 55.7053 112.518 55.7586 112.337 55.8013C112.156 55.8546 111.948 55.8813 111.713 55.8813C111.436 55.8813 111.206 55.8226 111.025 55.7053C110.844 55.5986 110.705 55.4493 110.609 55.2573C110.513 55.0546 110.449 54.8306 110.417 54.5853H110.305C110.113 54.8519 109.868 55.0866 109.569 55.2893C109.281 55.4813 108.956 55.6306 108.593 55.7373C108.23 55.8439 107.836 55.8973 107.409 55.8973ZM107.761 54.7133C108.102 54.7133 108.422 54.6599 108.721 54.5533C109.03 54.4466 109.302 54.2973 109.537 54.1053C109.772 53.9026 109.958 53.6626 110.097 53.3853C110.236 53.1079 110.305 52.8039 110.305 52.4733V51.7693C109.441 51.7693 108.705 51.8173 108.097 51.9133C107.489 52.0093 107.02 52.1799 106.689 52.4253C106.369 52.6706 106.209 53.0173 106.209 53.4653C106.209 53.7533 106.273 53.9879 106.401 54.1693C106.529 54.3506 106.71 54.4893 106.945 54.5853C107.18 54.6706 107.452 54.7133 107.761 54.7133ZM114.336 45.7053V44.1373H115.744V45.7053H114.336ZM114.336 55.7053V47.2893H115.744V55.7053H114.336ZM118.25 55.7053V44.1373H119.658V55.7053H118.25ZM129.283 55.8973C128.43 55.8973 127.71 55.7426 127.123 55.4333C126.547 55.1133 126.104 54.6279 125.795 53.9773C125.496 53.3266 125.347 52.4999 125.347 51.4973C125.347 50.4839 125.496 49.6573 125.795 49.0173C126.104 48.3666 126.547 47.8866 127.123 47.5773C127.71 47.2573 128.43 47.0973 129.283 47.0973C130.136 47.0973 130.851 47.2573 131.427 47.5773C132.014 47.8866 132.456 48.3666 132.755 49.0173C133.054 49.6573 133.203 50.4839 133.203 51.4973C133.203 52.4999 133.054 53.3266 132.755 53.9773C132.456 54.6279 132.014 55.1133 131.427 55.4333C130.851 55.7426 130.136 55.8973 129.283 55.8973ZM129.283 54.7133C129.827 54.7133 130.28 54.6066 130.643 54.3933C131.006 54.1799 131.278 53.8493 131.459 53.4013C131.651 52.9426 131.747 52.3666 131.747 51.6733V51.3213C131.747 50.6173 131.651 50.0413 131.459 49.5933C131.278 49.1453 131.006 48.8146 130.643 48.6013C130.28 48.3879 129.827 48.2813 129.283 48.2813C128.739 48.2813 128.28 48.3879 127.907 48.6013C127.544 48.8146 127.272 49.1453 127.091 49.5933C126.91 50.0413 126.819 50.6173 126.819 51.3213V51.6733C126.819 52.3666 126.91 52.9426 127.091 53.4013C127.272 53.8493 127.544 54.1799 127.907 54.3933C128.28 54.6066 128.739 54.7133 129.283 54.7133ZM135.272 55.7053V47.2893H136.408L136.536 48.6813H136.648C136.733 48.4146 136.851 48.1639 137 47.9293C137.149 47.6839 137.352 47.4866 137.608 47.3373C137.864 47.1773 138.179 47.0973 138.552 47.0973C138.712 47.0973 138.856 47.1133 138.984 47.1453C139.123 47.1666 139.224 47.1933 139.288 47.2253V48.5213H138.76C138.397 48.5213 138.083 48.5853 137.816 48.7133C137.56 48.8306 137.347 49.0013 137.176 49.2253C137.005 49.4493 136.877 49.7159 136.792 50.0253C136.717 50.3346 136.68 50.6653 136.68 51.0173V55.7053H135.272ZM147.2 55.8973C146.624 55.8973 146.117 55.8386 145.68 55.7213C145.243 55.6039 144.88 55.4333 144.592 55.2093C144.304 54.9853 144.085 54.7186 143.936 54.4093C143.787 54.0999 143.712 53.7479 143.712 53.3533C143.712 53.2999 143.712 53.2519 143.712 53.2093C143.712 53.1559 143.717 53.1133 143.728 53.0813H145.12C145.109 53.1239 145.104 53.1613 145.104 53.1933C145.104 53.2253 145.104 53.2573 145.104 53.2893C145.115 53.6626 145.211 53.9559 145.392 54.1693C145.584 54.3826 145.845 54.5319 146.176 54.6173C146.507 54.7026 146.875 54.7453 147.28 54.7453C147.632 54.7453 147.957 54.7026 148.256 54.6173C148.555 54.5213 148.789 54.3826 148.96 54.2013C149.141 54.0093 149.232 53.7693 149.232 53.4813C149.232 53.1293 149.115 52.8626 148.88 52.6813C148.656 52.4893 148.357 52.3399 147.984 52.2333C147.611 52.1266 147.221 52.0146 146.816 51.8973C146.475 51.8013 146.133 51.6946 145.792 51.5773C145.451 51.4599 145.141 51.3159 144.864 51.1453C144.597 50.9746 144.379 50.7559 144.208 50.4893C144.048 50.2119 143.968 49.8653 143.968 49.4493C143.968 49.0759 144.043 48.7453 144.192 48.4573C144.352 48.1693 144.576 47.9239 144.864 47.7213C145.152 47.5186 145.499 47.3693 145.904 47.2733C146.32 47.1666 146.779 47.1133 147.28 47.1133C147.813 47.1133 148.277 47.1719 148.672 47.2893C149.077 47.4066 149.413 47.5719 149.68 47.7853C149.947 47.9986 150.144 48.2439 150.272 48.5213C150.4 48.7879 150.464 49.0759 150.464 49.3853C150.464 49.4493 150.464 49.5133 150.464 49.5773C150.464 49.6306 150.459 49.6733 150.448 49.7053H149.072V49.5293C149.072 49.3159 149.013 49.1133 148.896 48.9213C148.789 48.7186 148.597 48.5586 148.32 48.4413C148.053 48.3133 147.68 48.2493 147.2 48.2493C146.891 48.2493 146.624 48.2759 146.4 48.3293C146.176 48.3719 145.989 48.4466 145.84 48.5533C145.691 48.6493 145.579 48.7666 145.504 48.9053C145.429 49.0333 145.392 49.1826 145.392 49.3533C145.392 49.6306 145.483 49.8439 145.664 49.9933C145.845 50.1426 146.085 50.2653 146.384 50.3613C146.693 50.4573 147.024 50.5639 147.376 50.6813C147.749 50.7879 148.128 50.8999 148.512 51.0173C148.907 51.1239 149.264 51.2626 149.584 51.4333C149.915 51.6039 150.176 51.8386 150.368 52.1373C150.571 52.4253 150.672 52.8093 150.672 53.2893C150.672 53.7373 150.587 54.1266 150.416 54.4573C150.245 54.7879 150 55.0599 149.68 55.2733C149.371 55.4866 149.003 55.6413 148.576 55.7373C148.16 55.8439 147.701 55.8973 147.2 55.8973ZM154.7 55.8973C154.263 55.8973 153.921 55.8173 153.676 55.6573C153.431 55.4866 153.255 55.2679 153.148 55.0013C153.041 54.7239 152.988 54.4306 152.988 54.1213V48.4733H151.9V47.2893H153.02L153.276 44.9373H154.396V47.2893H155.98V48.4733H154.396V53.9133C154.396 54.1799 154.444 54.3826 154.54 54.5213C154.636 54.6493 154.817 54.7133 155.084 54.7133H155.98V55.6413C155.873 55.6946 155.745 55.7373 155.596 55.7693C155.447 55.8013 155.292 55.8279 155.132 55.8493C154.983 55.8813 154.839 55.8973 154.7 55.8973ZM159.914 55.8973C159.605 55.8973 159.295 55.8599 158.986 55.7853C158.677 55.7106 158.389 55.5879 158.122 55.4173C157.855 55.2466 157.642 55.0119 157.482 54.7133C157.322 54.4039 157.242 54.0199 157.242 53.5613C157.242 52.9853 157.381 52.5106 157.658 52.1373C157.935 51.7639 158.319 51.4759 158.81 51.2733C159.311 51.0599 159.903 50.9159 160.586 50.8413C161.269 50.7559 162.01 50.7133 162.81 50.7133V49.7533C162.81 49.4439 162.757 49.1773 162.65 48.9533C162.543 48.7293 162.351 48.5586 162.074 48.4413C161.807 48.3133 161.423 48.2493 160.922 48.2493C160.442 48.2493 160.058 48.3133 159.77 48.4413C159.493 48.5586 159.295 48.7133 159.178 48.9053C159.071 49.0973 159.018 49.3106 159.018 49.5453V49.7853H157.658C157.647 49.7319 157.642 49.6786 157.642 49.6253C157.642 49.5719 157.642 49.5079 157.642 49.4333C157.642 48.9213 157.781 48.4946 158.058 48.1533C158.346 47.8013 158.746 47.5399 159.258 47.3693C159.77 47.1879 160.357 47.0973 161.018 47.0973C161.722 47.0973 162.309 47.1986 162.778 47.4013C163.258 47.6039 163.615 47.8919 163.85 48.2653C164.095 48.6386 164.218 49.0866 164.218 49.6093V54.1693C164.218 54.3719 164.266 54.5159 164.362 54.6013C164.458 54.6759 164.575 54.7133 164.714 54.7133H165.338V55.6413C165.189 55.7053 165.023 55.7586 164.842 55.8013C164.661 55.8546 164.453 55.8813 164.218 55.8813C163.941 55.8813 163.711 55.8226 163.53 55.7053C163.349 55.5986 163.21 55.4493 163.114 55.2573C163.018 55.0546 162.954 54.8306 162.922 54.5853H162.81C162.618 54.8519 162.373 55.0866 162.074 55.2893C161.786 55.4813 161.461 55.6306 161.098 55.7373C160.735 55.8439 160.341 55.8973 159.914 55.8973ZM160.266 54.7133C160.607 54.7133 160.927 54.6599 161.226 54.5533C161.535 54.4466 161.807 54.2973 162.042 54.1053C162.277 53.9026 162.463 53.6626 162.602 53.3853C162.741 53.1079 162.81 52.8039 162.81 52.4733V51.7693C161.946 51.7693 161.21 51.8173 160.602 51.9133C159.994 52.0093 159.525 52.1799 159.194 52.4253C158.874 52.6706 158.714 53.0173 158.714 53.4653C158.714 53.7533 158.778 53.9879 158.906 54.1693C159.034 54.3506 159.215 54.4893 159.45 54.5853C159.685 54.6706 159.957 54.7133 160.266 54.7133ZM167.177 55.7053V48.4733H165.929V47.2893H167.177V45.9453C167.177 45.6146 167.225 45.3053 167.321 45.0173C167.417 44.7186 167.598 44.4786 167.865 44.2973C168.132 44.1053 168.505 44.0093 168.985 44.0093C169.134 44.0093 169.278 44.0199 169.417 44.0413C169.566 44.0519 169.705 44.0733 169.833 44.1053C169.972 44.1266 170.094 44.1533 170.201 44.1853V45.1933H169.353C169.086 45.1933 168.889 45.2626 168.761 45.4013C168.644 45.5293 168.585 45.7159 168.585 45.9613V47.2893H171.321V45.9453C171.321 45.6146 171.369 45.3053 171.465 45.0173C171.572 44.7186 171.758 44.4786 172.025 44.2973C172.292 44.1053 172.665 44.0093 173.145 44.0093C173.284 44.0093 173.428 44.0199 173.577 44.0413C173.726 44.0519 173.865 44.0733 173.993 44.1053C174.121 44.1266 174.238 44.1533 174.345 44.1853V45.1933H173.513C173.246 45.1933 173.049 45.2626 172.921 45.4013C172.793 45.5293 172.729 45.7159 172.729 45.9613V47.2893H174.345V48.4733H172.729V55.7053H171.321V48.4733H168.585V55.7053H167.177ZM179.737 55.7053V44.7293H181.257V55.7053H179.737ZM184.323 55.7053V44.7293H188.419C189.571 44.7293 190.552 44.9213 191.363 45.3053C192.174 45.6893 192.792 46.2866 193.219 47.0973C193.656 47.8973 193.875 48.9373 193.875 50.2173C193.875 51.4759 193.656 52.5106 193.219 53.3213C192.792 54.1319 192.174 54.7346 191.363 55.1293C190.552 55.5133 189.571 55.7053 188.419 55.7053H184.323ZM185.843 54.3933H188.387C188.995 54.3933 189.539 54.3186 190.019 54.1693C190.499 54.0093 190.91 53.7693 191.251 53.4493C191.592 53.1293 191.848 52.7186 192.019 52.2173C192.2 51.7053 192.291 51.0973 192.291 50.3933V50.0733C192.291 49.3479 192.2 48.7346 192.019 48.2333C191.848 47.7213 191.592 47.3053 191.251 46.9853C190.92 46.6653 190.515 46.4306 190.035 46.2813C189.555 46.1213 189.006 46.0413 188.387 46.0413H185.843V54.3933Z" fill="#A6A6AB"/>
</svg>
