<svg width="20" height="21" viewBox="0 0 20 21" fill="none" xmlns="http://www.w3.org/2000/svg">
<g id="vuesax/outline/eye-slash">
<g id="eye-slash">
<path id="Vector" d="M7.51587 12.12L7.84066 12.6884L8.30355 12.2255L11.5202 9.00881L11.9831 8.54592L11.4147 8.22114C10.9894 7.97809 10.5039 7.84692 10 7.84692C8.42385 7.84692 7.14166 9.12911 7.14166 10.7053C7.14166 11.2092 7.27283 11.6947 7.51587 12.12ZM7.89166 12.9386C7.87398 12.9386 7.85846 12.9354 7.84513 12.93C7.83228 12.9248 7.81823 12.9164 7.80355 12.9017C7.21388 12.312 6.89166 11.5308 6.89166 10.7053C6.89166 8.98973 8.28447 7.59692 10 7.59692C10.8256 7.59692 11.6068 7.91914 12.1964 8.50881C12.2204 8.53278 12.2333 8.56437 12.2333 8.59692C12.2333 8.62948 12.2204 8.66107 12.1964 8.68504L7.97978 12.9017C7.96509 12.9164 7.95105 12.9248 7.93819 12.93C7.92487 12.9354 7.90935 12.9386 7.89166 12.9386Z" fill="#292D32" stroke="#292D32"/>
<path id="Vector_2" d="M4.58225 15.5994L4.58372 15.6006C4.59302 15.6086 4.60579 15.6163 4.62173 15.6221C4.63794 15.6279 4.65385 15.6303 4.66666 15.6303C4.70296 15.6303 4.73228 15.6141 4.74736 15.5957L4.75115 15.5911L4.75118 15.5912C4.79888 15.5346 4.79186 15.4548 4.73911 15.408C3.90722 14.6898 3.1601 13.8105 2.51239 12.8001C2.13447 12.2106 1.96458 11.4404 1.96458 10.7053C1.96458 9.97034 2.13436 9.20048 2.51202 8.61101C4.37831 5.6823 7.09507 3.9386 9.99999 3.9386C11.6769 3.9386 13.3312 4.52191 14.7765 5.61477L14.7769 5.61505C14.8268 5.65285 14.9061 5.64659 14.9514 5.58667C14.9892 5.53689 14.983 5.45788 14.9235 5.41244C13.4192 4.28054 11.7151 3.6886 9.99999 3.6886C7.0838 3.6886 4.26881 5.39949 2.30474 8.47436L4.58225 15.5994ZM4.58225 15.5994C3.73234 14.8766 2.96486 13.9827 2.30622 12.9385L2.30624 12.9385M4.58225 15.5994L2.30624 12.9385M2.30624 12.9385L2.304 12.935M2.30624 12.9385L2.304 12.935M2.304 12.935C1.92528 12.3455 1.72083 11.5408 1.72083 10.7084M2.304 12.935L1.72083 10.7084M1.72083 10.7084C1.72083 9.87618 1.92522 9.06872 2.3047 8.47442L1.72083 10.7084Z" fill="#292D32" stroke="#292D32"/>
<path id="Vector_3" d="M10 18.2219C8.89168 18.2219 7.80834 17.9969 6.76668 17.5553C6.45001 17.4219 6.30001 17.0553 6.43334 16.7386C6.56668 16.4219 6.93334 16.2719 7.25001 16.4053C8.13334 16.7803 9.05834 16.9719 9.99168 16.9719C12.6833 16.9719 15.2583 15.3553 17.0583 12.5303C17.6833 11.5553 17.6833 9.85526 17.0583 8.88026C16.8 8.47192 16.5167 8.08025 16.2167 7.71359C16 7.44692 16.0417 7.05525 16.3083 6.83025C16.575 6.61359 16.9667 6.64692 17.1917 6.92192C17.5167 7.32192 17.8333 7.75525 18.1167 8.20525C19 9.58026 19 11.8219 18.1167 13.2053C16.0833 16.3886 13.125 18.2219 10 18.2219Z" fill="#292D32"/>
<path id="Vector_4" d="M10.575 14.2636C10.2833 14.2636 10.0167 14.0553 9.95833 13.7553C9.89166 13.4136 10.1167 13.0886 10.4583 13.0303C11.375 12.8636 12.1417 12.0969 12.3083 11.1803C12.375 10.8386 12.7 10.6219 13.0417 10.6803C13.3833 10.7469 13.6083 11.0719 13.5417 11.4136C13.275 12.8553 12.125 13.9969 10.6917 14.2636C10.65 14.2553 10.6167 14.2636 10.575 14.2636Z" fill="#292D32"/>
<path id="Vector_5" d="M1.66668 19.6636C1.50835 19.6636 1.35001 19.6053 1.22501 19.4803C0.983346 19.2386 0.983346 18.8386 1.22501 18.5969L7.45001 12.3719C7.69168 12.1303 8.09168 12.1303 8.33335 12.3719C8.57501 12.6136 8.57501 13.0136 8.33335 13.2553L2.10835 19.4803C1.98335 19.6053 1.82501 19.6636 1.66668 19.6636Z" fill="#292D32"/>
<path id="Vector_6" d="M12.1083 9.22193C11.95 9.22193 11.7917 9.16359 11.6667 9.03859C11.425 8.79693 11.425 8.39692 11.6667 8.15526L17.8917 1.93026C18.1333 1.68859 18.5333 1.68859 18.775 1.93026C19.0167 2.17192 19.0167 2.57192 18.775 2.81359L12.55 9.03859C12.425 9.16359 12.2667 9.22193 12.1083 9.22193Z" fill="#292D32"/>
</g>
</g>
</svg>
