<svg width="60" height="60" viewBox="0 0 60 60" fill="none" xmlns="http://www.w3.org/2000/svg">
<circle cx="30" cy="30" r="30" fill="url(#paint0_linear_3_21)"/>
<path d="M20.5063 37.7875C21.8875 36.7313 23.4313 35.8984 25.1375 35.2891C26.8438 34.6797 28.6313 34.375 30.5 34.375C32.3687 34.375 34.1562 34.6797 35.8625 35.2891C37.5688 35.8984 39.1125 36.7313 40.4937 37.7875C41.4417 36.6771 42.1797 35.4177 42.7078 34.0094C43.2359 32.601 43.5 31.0979 43.5 29.5C43.5 25.8979 42.2339 22.8307 39.7016 20.2984C37.1693 17.7661 34.1021 16.5 30.5 16.5C26.8979 16.5 23.8307 17.7661 21.2984 20.2984C18.7661 22.8307 17.5 25.8979 17.5 29.5C17.5 31.0979 17.7641 32.601 18.2922 34.0094C18.8203 35.4177 19.5583 36.6771 20.5063 37.7875ZM30.5 31.125C28.9021 31.125 27.5547 30.5766 26.4578 29.4797C25.3609 28.3828 24.8125 27.0354 24.8125 25.4375C24.8125 23.8396 25.3609 22.4922 26.4578 21.3953C27.5547 20.2984 28.9021 19.75 30.5 19.75C32.0979 19.75 33.4453 20.2984 34.5422 21.3953C35.6391 22.4922 36.1875 23.8396 36.1875 25.4375C36.1875 27.0354 35.6391 28.3828 34.5422 29.4797C33.4453 30.5766 32.0979 31.125 30.5 31.125ZM30.5 45.75C28.2521 45.75 26.1396 45.3234 24.1625 44.4703C22.1854 43.6172 20.4656 42.4594 19.0031 40.9969C17.5406 39.5344 16.3828 37.8146 15.5297 35.8375C14.6766 33.8604 14.25 31.7479 14.25 29.5C14.25 27.2521 14.6766 25.1396 15.5297 23.1625C16.3828 21.1854 17.5406 19.4656 19.0031 18.0031C20.4656 16.5406 22.1854 15.3828 24.1625 14.5297C26.1396 13.6766 28.2521 13.25 30.5 13.25C32.7479 13.25 34.8604 13.6766 36.8375 14.5297C38.8146 15.3828 40.5344 16.5406 41.9969 18.0031C43.4594 19.4656 44.6172 21.1854 45.4703 23.1625C46.3234 25.1396 46.75 27.2521 46.75 29.5C46.75 31.7479 46.3234 33.8604 45.4703 35.8375C44.6172 37.8146 43.4594 39.5344 41.9969 40.9969C40.5344 42.4594 38.8146 43.6172 36.8375 44.4703C34.8604 45.3234 32.7479 45.75 30.5 45.75Z" fill="#818181"/>
<defs>
<linearGradient id="paint0_linear_3_21" x1="30" y1="0" x2="30" y2="60" gradientUnits="userSpaceOnUse">
<stop stop-color="#D9D9D9"/>
<stop offset="0.365" stop-color="#E7E7E7"/>
<stop offset="1" stop-color="white"/>
</linearGradient>
</defs>
</svg>
