<svg width="30" height="31" viewBox="0 0 30 31" fill="none" xmlns="http://www.w3.org/2000/svg">
<g id="Group 3">
<path id="Vector" d="M29.0747 15.4669C29.0747 14.4487 28.992 13.4343 28.8192 12.4304H14.8301V18.1806H22.8414C22.5103 20.0358 21.4413 21.677 19.8796 22.717V26.4527H24.6624C27.4624 23.8583 29.0747 20.014 29.0747 15.4669Z" fill="#4285F4"/>
<path id="Vector_2" d="M14.8302 30.0615C18.8323 30.0615 22.2046 28.739 24.6624 26.4563L19.8796 22.7206C18.548 23.6301 16.8349 24.1482 14.8302 24.1482C10.9614 24.1482 7.67912 21.5215 6.50234 17.985H1.5791V21.8329C4.09824 26.8803 9.22317 30.0615 14.8302 30.0615Z" fill="#34A853"/>
<path id="Vector_3" d="M6.50589 17.9849C5.88338 16.1335 5.88338 14.1225 6.50589 12.2676V8.42321H1.57916C-0.526387 12.6442 -0.526387 17.6153 1.57916 21.8365L6.50589 17.9849Z" fill="#FBBC04"/>
<path id="Vector_4" d="M14.8302 6.10808C16.9464 6.07546 18.987 6.87635 20.5201 8.3474L24.7561 4.0863C22.0713 1.55016 18.5156 0.15513 14.8302 0.195024C9.22317 0.195024 4.09475 3.37975 1.5791 8.42343L6.50583 12.2713C7.67912 8.73129 10.9614 6.10808 14.8302 6.10808Z" fill="#EA4335"/>
</g>
</svg>
