<svg width="32" height="32" viewBox="0 0 32 32" fill="none" xmlns="http://www.w3.org/2000/svg">
<path d="M29.3334 16H21.3334L18.6667 20H13.3334L10.6667 16H2.66669" stroke="white" stroke-width="2.66667" stroke-linecap="round" stroke-linejoin="round"/>
<path d="M7.26669 6.81333L2.66669 16V24C2.66669 24.7072 2.94764 25.3855 3.44774 25.8856C3.94783 26.3857 4.62611 26.6667 5.33335 26.6667H26.6667C27.3739 26.6667 28.0522 26.3857 28.5523 25.8856C29.0524 25.3855 29.3334 24.7072 29.3334 24V16L24.7334 6.81333C24.5126 6.36905 24.1723 5.99516 23.7506 5.73371C23.329 5.47225 22.8428 5.3336 22.3467 5.33333H9.65335C9.15724 5.3336 8.67104 5.47225 8.24941 5.73371C7.82779 5.99516 7.48746 6.36905 7.26669 6.81333Z" stroke="white" stroke-width="2.66667" stroke-linecap="round" stroke-linejoin="round"/>
</svg>
