<svg width="20" height="21" viewBox="0 0 20 21" fill="none" xmlns="http://www.w3.org/2000/svg">
<g id="vuesax/outline/lock">
<g id="lock">
<path id="Vector" d="M15 9.6636C14.6583 9.6636 14.375 9.38027 14.375 9.0386V7.37193C14.375 4.74693 13.6333 2.99693 10 2.99693C6.36667 2.99693 5.625 4.74693 5.625 7.37193V9.0386C5.625 9.38027 5.34167 9.6636 5 9.6636C4.65833 9.6636 4.375 9.38027 4.375 9.0386V7.37193C4.375 4.95527 4.95833 1.74693 10 1.74693C15.0417 1.74693 15.625 4.95527 15.625 7.37193V9.0386C15.625 9.38027 15.3417 9.6636 15 9.6636Z" fill="#292D32"/>
<path id="Vector_2" d="M10 16.2469C8.78447 16.2469 7.79166 15.2541 7.79166 14.0386C7.79166 12.8231 8.78447 11.8303 10 11.8303C11.2155 11.8303 12.2083 12.8231 12.2083 14.0386C12.2083 15.2541 11.2155 16.2469 10 16.2469ZM10 12.0803C8.92386 12.0803 8.04166 12.9625 8.04166 14.0386C8.04166 15.1147 8.92386 15.9969 10 15.9969C11.0761 15.9969 11.9583 15.1147 11.9583 14.0386C11.9583 12.9625 11.0761 12.0803 10 12.0803Z" fill="#A6A6AB" stroke="#A6A6AB"/>
<path id="Vector_3" d="M14.1667 19.6636H5.83333C2.15833 19.6636 1.04166 18.5469 1.04166 14.8719V13.2053C1.04166 9.53026 2.15833 8.41359 5.83333 8.41359H14.1667C17.8417 8.41359 18.9583 9.53026 18.9583 13.2053V14.8719C18.9583 18.5469 17.8417 19.6636 14.1667 19.6636ZM5.83333 9.66359C2.85 9.66359 2.29166 10.2303 2.29166 13.2053V14.8719C2.29166 17.8469 2.85 18.4136 5.83333 18.4136H14.1667C17.15 18.4136 17.7083 17.8469 17.7083 14.8719V13.2053C17.7083 10.2303 17.15 9.66359 14.1667 9.66359H5.83333Z" fill="#292D32"/>
</g>
</g>
</svg>
