<svg width="20" height="21" viewBox="0 0 20 21" fill="none" xmlns="http://www.w3.org/2000/svg">
<g id="vuesax/outline/sms-tracking">
<g id="sms-tracking">
<path id="Vector" d="M14.1667 18.4136H5.83333C5.49166 18.4136 5.20833 18.1303 5.20833 17.7886C5.20833 17.4469 5.49166 17.1636 5.83333 17.1636H14.1667C16.55 17.1636 17.7083 16.0053 17.7083 13.6219V7.78859C17.7083 5.40526 16.55 4.24693 14.1667 4.24693H5.83333C3.45 4.24693 2.29166 5.40526 2.29166 7.78859C2.29166 8.13026 2.00833 8.41359 1.66666 8.41359C1.325 8.41359 1.04166 8.13026 1.04166 7.78859C1.04166 4.74693 2.79166 2.99693 5.83333 2.99693H14.1667C17.2083 2.99693 18.9583 4.74693 18.9583 7.78859V13.6219C18.9583 16.6636 17.2083 18.4136 14.1667 18.4136Z" fill="#292D32"/>
<path id="Vector_2" d="M8.36579 10.3844L8.36581 10.3844L8.36186 10.3812L5.75571 8.29964C5.69356 8.24824 5.69593 8.17024 5.72954 8.12886C5.78093 8.06562 5.85957 8.06782 5.90118 8.10163L5.90117 8.10164L5.90443 8.10425L8.51184 10.1868C8.51203 10.187 8.51221 10.1871 8.51239 10.1873C8.93365 10.5252 9.47721 10.6782 9.99565 10.6782C10.5141 10.6782 11.0577 10.5251 11.479 10.1872C11.4791 10.1871 11.4793 10.187 11.4795 10.1868L14.0869 8.10425L14.0869 8.10426L14.0901 8.10163C14.1443 8.05757 14.2191 8.07309 14.2513 8.1155L14.2564 8.12227L14.2617 8.12887C14.3058 8.18309 14.2903 8.2579 14.2479 8.29003L14.2478 8.28989L14.2378 8.29789L11.6294 10.3812L11.6294 10.3812L11.6226 10.3868C11.193 10.7425 10.6032 10.9302 9.99982 10.9302C9.39736 10.9302 8.80548 10.7429 8.36579 10.3844Z" fill="#292D32" stroke="#292D32"/>
<path id="Vector_3" d="M6.66666 15.0803H1.66666C1.325 15.0803 1.04166 14.7969 1.04166 14.4553C1.04166 14.1136 1.325 13.8303 1.66666 13.8303H6.66666C7.00833 13.8303 7.29166 14.1136 7.29166 14.4553C7.29166 14.7969 7.00833 15.0803 6.66666 15.0803Z" fill="#292D32"/>
<path id="Vector_4" d="M4.16666 11.7469H1.66666C1.325 11.7469 1.04166 11.4636 1.04166 11.1219C1.04166 10.7803 1.325 10.4969 1.66666 10.4969H4.16666C4.50833 10.4969 4.79166 10.7803 4.79166 11.1219C4.79166 11.4636 4.50833 11.7469 4.16666 11.7469Z" fill="#292D32"/>
</g>
</g>
</svg>
